:FULLY-SPECIFIED
:DEGREES
1896
root 0.359478 15.6826 -2.29337 4364.25 -95.9874 -4361.66
lowerback 4.80694 0.497163 -9.02397
upperback -1.62687 0.0710224 0.260358
thorax -4.43076 0.285395 5.34042
lowerneck -16.7237 1.27943 1.34362
upperneck 20.928 1.9601 -3.02852
head 9.40887 0.603796 -1.0286
rclavicle 1.03368e-014 1.41137e-014
rhumerus -40.6781 -19.1865 -76.3911
rradius 14.693
rwrist 19.952
rhand -27.9289 -17.4641
rfingers 7.12502
rthumb -1.31729 -47.4398
lclavicle 1.03368e-014 1.41137e-014
lhumerus -17.7426 -13.8746 92.5585
lradius 32.8104
lwrist 10.8194
lhand -32.8431 15.761
lfingers 7.12502
lthumb -6.06278 45.6543
rfemur -29.9659 2.74971 17.0442
rtibia 41.7454
rfoot -17.7095 -22.4815
rtoes -9.80387
lfemur -1.61139 -4.93609 -31.1031
ltibia 19.1963
lfoot -13.8915 6.87353
ltoes -11.1654
1897
root 0.368071 15.6926 -2.30092 4365.64 -96.04 -4362.85
lowerback 4.66061 0.504686 -9.14226
upperback -1.65399 0.0839508 0.209332
thorax -4.37939 0.292366 5.35184
lowerneck -16.7624 1.24336 1.31073
upperneck 20.8421 1.91098 -2.99042
head 9.38406 0.584587 -1.01547
rclavicle 8.74653e-015 -9.93923e-017
rhumerus -40.3604 -19.4786 -76.4317
rradius 14.6163
rwrist 20.2275
rhand -28.0124 -17.2428
rfingers 7.12502
rthumb -1.39787 -47.218
lclavicle 8.74653e-015 -9.93923e-017
lhumerus -17.795 -13.8199 92.4577
lradius 32.7201
lwrist 10.4234
lhand -32.7911 15.6657
lfingers 7.12502
lthumb -6.01249 45.5604
rfemur -30.0679 3.33177 16.9047
rtibia 38.9487
rfoot -17.3176 -21.9405
rtoes -10.5379
lfemur -0.687622 -4.80205 -31.2272
ltibia 18.1624
lfoot -13.6332 6.64672
ltoes -12.0507
1898
root 0.376866 15.7024 -2.30799 4367.32 -96.1074 -4364.35
lowerback 4.51757 0.52046 -9.24137
upperback -1.67009 0.107759 0.121311
thorax -4.31971 0.302634 5.31247
lowerneck -16.7897 1.20273 1.29843
upperneck 20.7503 1.8444 -2.92814
head 9.3546 0.561891 -0.999661
rclavicle 8.34896e-015 -1.0635e-014
rhumerus -39.9744 -19.6 -76.6831
rradius 14.6094
rwrist 20.3955
rhand -28.1679 -17.223
rfingers 7.12502
rthumb -1.54808 -47.1971
lclavicle 8.34896e-015 -1.0635e-014
lhumerus -17.8851 -14.0514 92.3535
lradius 32.6896
lwrist 10.4135
lhand -32.8584 15.588
lfingers 7.12502
lthumb -6.07755 45.4808
rfemur -30.1063 3.97597 16.6576
rtibia 36.1075
rfoot -17.1526 -21.1889
rtoes -11.0767
lfemur 0.306012 -4.73956 -31.4003
ltibia 17.0404
lfoot -13.3562 6.47539
ltoes -12.8741
1899
root 0.386643 15.7124 -2.31538 4368.76 -96.1432 -4365.55
lowerback 4.37351 0.519475 -9.32836
upperback -1.74832 0.109062 0.0749566
thorax -4.32158 0.307117 5.31221
lowerneck -16.7653 1.18101 1.30644
upperneck 20.6794 1.81341 -2.93309
head 9.32475 0.549129 -1.00622
rclavicle -6.75868e-015 5.86415e-015
rhumerus -39.5643 -19.5379 -77.0085
rradius 14.6578
rwrist 20.2333
rhand -28.1423 -17.4862
rfingers 7.12502
rthumb -1.52334 -47.4605
lclavicle -6.75868e-015 5.86415e-015
lhumerus -18.1137 -13.8183 92.3049
lradius 32.6933
lwrist 10.1719
lhand -32.872 15.62
lfingers 7.12502
lthumb -6.09063 45.5125
rfemur -30.1626 4.85378 16.3661
rtibia 33.2983
rfoot -17.2182 -20.5388
rtoes -11.8761
lfemur 1.28706 -4.53345 -31.4832
ltibia 15.7991
lfoot -12.926 6.06517
ltoes -13.3662
1900
root 0.391516 15.7266 -2.32434 4369.82 -96.1495 -4366.39
lowerback 4.15869 0.539146 -9.33559
upperback -1.78268 0.153338 0.0286939
thorax -4.24279 0.325624 5.26367
lowerneck -16.7861 1.11817 1.26727
upperneck 20.599 1.73697 -2.93119
head 9.29838 0.512339 -1.00818
rclavicle 1.31198e-014 1.39149e-015
rhumerus -39.1341 -19.483 -77.3807
rradius 14.7512
rwrist 20.0197
rhand -28.2527 -17.6272
rfingers 7.12502
rthumb -1.63001 -47.6007
lclavicle 1.31198e-014 1.39149e-015
lhumerus -18.3519 -13.8516 92.2753
lradius 32.6888
lwrist 10.3375
lhand -32.9106 15.4795
lfingers 7.12502
lthumb -6.12791 45.3709
rfemur -30.1594 5.84779 16.0526
rtibia 30.6003
rfoot -17.4383 -20.0603
rtoes -12.9036
lfemur 2.32674 -4.50239 -31.5134
ltibia 14.4815
lfoot -12.5191 5.76341
ltoes -13.513
1901
root 0.397054 15.7379 -2.33226 4371.44 -96.1709 -4367.77
lowerback 3.95557 0.548081 -9.38929
upperback -1.83743 0.178301 -0.0129531
thorax -4.18968 0.337687 5.24792
lowerneck -16.8008 1.0685 1.22893
upperneck 20.5419 1.67888 -2.93108
head 9.27953 0.483484 -1.00872
rclavicle -1.03368e-014 2.49475e-014
rhumerus -38.5921 -19.0275 -77.9988
rradius 15.0155
rwrist 18.9183
rhand -28.1288 -17.7935
rfingers 7.12502
rthumb -1.51027 -47.7679
lclavicle -1.03368e-014 2.49475e-014
lhumerus -18.6412 -13.8914 92.3097
lradius 32.6628
lwrist 10.3843
lhand -32.9723 15.6558
lfingers 7.12502
lthumb -6.18744 45.5455
rfemur -30.2306 7.09099 15.5452
rtibia 28.1296
rfoot -17.5952 -20.0689
rtoes -14.1406
lfemur 3.3931 -4.41296 -31.599
ltibia 13.1202
lfoot -12.013 5.41676
ltoes -13.7502
